# Blender v2.75 (sub 0) OBJ File: 'castle.blend'
# www.blender.org
mtllib ground.mtl
o Plane_Plane.001
v 18.385647 -2.584756 -19.144506
v 18.385647 -2.584756 27.154394
v 18.385647 -2.584756 73.453293
v 18.385647 -2.584756 119.752205
v 64.684547 -2.584756 -19.144506
v 110.983444 -2.584756 -19.144506
v 157.282364 -2.584756 -19.144506
v 18.385647 -2.584756 -65.443405
v 18.385647 -2.584756 -111.742310
v 18.385647 -2.584756 -158.041214
v -27.913254 -2.584756 -19.144506
v -74.212158 -2.584756 -19.144506
v -120.511063 -2.584756 -19.144506
v -27.128529 -2.584756 26.369669
v -25.166710 -2.584756 71.883842
v -22.420166 -2.584756 117.398018
v -72.642700 -2.584756 24.407850
v -68.522888 -2.584756 67.764023
v -62.441250 -2.584756 110.727837
v -118.156876 -2.584756 21.661306
v -111.486694 -2.584756 61.682388
v -100.892883 -2.584756 100.134018
v 63.899822 -2.584756 26.369669
v 109.414001 -2.584756 24.407850
v 154.928177 -2.584756 21.661306
v 61.938004 -2.584756 71.883842
v 105.294174 -2.584756 67.764023
v 148.257996 -2.584756 61.682388
v 59.191460 -2.584756 117.398018
v 99.212540 -2.584756 110.727837
v 137.664169 -2.584756 100.134018
v 63.899822 -2.584756 -64.658684
v 61.938004 -2.584756 -110.172859
v 59.191460 -2.584756 -155.687027
v 109.414001 -2.584756 -62.696861
v 105.294174 -2.584756 -106.053040
v 99.212540 -2.584756 -149.016846
v 154.928177 -2.584756 -59.950317
v 148.257996 -2.584756 -99.971405
v 137.664169 -2.584756 -138.423035
v -27.128529 -2.584756 -64.658684
v -72.642700 -2.584756 -62.696861
v -118.156876 -2.584756 -59.950317
v -25.166710 -2.584756 -110.172859
v -68.522888 -2.584756 -106.053040
v -111.486694 -2.584756 -99.971405
v -22.420166 -2.584756 -155.687027
v -62.441250 -2.584756 -149.016846
v -100.892883 -2.584756 -138.423035
v -138.559784 -2.584756 -125.867401
v -154.254318 -2.584756 -92.908859
v -163.671051 -2.584756 -56.811409
v -166.809952 -2.584756 -19.144506
v -163.671051 -2.584756 18.522398
v -154.254318 -2.584756 54.619843
v -138.559784 -2.584756 87.578384
v -88.337250 -2.584756 137.800934
v -55.378704 -2.584756 153.495468
v -19.281258 -2.584756 162.912201
v 18.385647 -2.584756 166.051102
v 56.052551 -2.584756 162.912201
v 92.149994 -2.584756 153.495468
v 125.108536 -2.584756 137.800934
v 175.331085 -2.584756 87.578384
v 191.025620 -2.584756 54.619843
v 200.442352 -2.584756 18.522398
v 203.581253 -2.584756 -19.144506
v 200.442352 -2.584756 -56.811409
v 191.025620 -2.584756 -92.908859
v 175.331085 -2.584756 -125.867401
v 125.108536 -2.584756 -176.089935
v 92.149994 -2.584756 -191.784470
v 56.052551 -2.584756 -201.201202
v 18.385647 -2.584756 -204.340103
v -19.281258 -2.584756 -201.201202
v -55.378704 -2.584756 -191.784470
v -88.337250 -2.584756 -176.089935
v -116.587418 -2.584756 115.828560
v 153.358719 -2.584756 115.828560
v -116.587418 -2.584756 -154.117569
v 153.358719 -2.584756 -154.117569
vt 0.500000 0.500000
vt 0.519157 0.270120
vt 0.744816 0.292848
vt 0.729880 0.519157
vt 0.969989 0.321420
vt 0.959761 0.538313
vt 1.194837 0.353890
vt 1.189641 0.557470
vt 1.419522 0.388307
vt 0.538313 0.040239
vt 0.753908 0.066052
vt 0.967472 0.104447
vt 1.178277 0.152419
vt 1.387702 0.205182
vt 0.557470 -0.189641
vt 0.759103 -0.161068
vt 0.955053 -0.111391
vt 1.141587 -0.042882
vt 1.323413 0.035044
vt 0.576627 -0.419522
vt 0.762349 -0.388351
vt 0.937682 -0.326660
vt 1.094832 -0.235098
vt 1.226006 -0.114313
vt 0.707152 0.744816
vt 0.480843 0.729880
vt 0.678580 0.969989
vt 0.461687 0.959761
vt 0.646111 1.194837
vt 0.442530 1.189641
vt 0.611693 1.419522
vt 0.933948 0.753908
vt 0.895553 0.967472
vt 0.847580 1.178277
vt 0.794819 1.387702
vt 1.161068 0.759103
vt 1.111391 0.955053
vt 1.042881 1.141587
vt 0.964956 1.323413
vt 1.419522 0.576627
vt 1.388351 0.762349
vt 1.326660 0.937682
vt 1.235098 1.094832
vt 1.114313 1.226006
vt 0.255184 0.707152
vt 0.270120 0.480843
vt 0.030011 0.678580
vt 0.040239 0.461687
vt -0.194837 0.646111
vt -0.189641 0.442530
vt -0.419522 0.611693
vt 0.246092 0.933948
vt 0.032528 0.895553
vt -0.178277 0.847580
vt -0.387702 0.794819
vt 0.240897 1.161068
vt 0.044947 1.111391
vt -0.141587 1.042881
vt -0.323413 0.964956
vt 0.423373 1.419522
vt 0.237651 1.388351
vt 0.062318 1.326660
vt -0.094832 1.235098
vt -0.226006 1.114313
vt 0.292848 0.255184
vt 0.321420 0.030011
vt 0.353890 -0.194837
vt 0.388307 -0.419522
vt 0.066052 0.246092
vt 0.104447 0.032528
vt 0.152419 -0.178277
vt 0.205182 -0.387702
vt -0.161068 0.240897
vt -0.111391 0.044947
vt -0.042882 -0.141587
vt 0.035044 -0.323413
vt -0.419522 0.423373
vt -0.388351 0.237651
vt -0.326660 0.062318
vt -0.235098 -0.094832
vt -0.114313 -0.226006
vn 0.000000 1.000000 0.000000
usemtl Ground
s off
f 1/1/1 11/2/1 14/3/1
f 2/4/1 14/3/1 15/5/1
f 3/6/1 15/5/1 16/7/1
f 4/8/1 16/7/1 59/9/1
f 11/2/1 12/10/1 17/11/1
f 14/3/1 17/11/1 18/12/1
f 15/5/1 18/12/1 19/13/1
f 16/7/1 19/13/1 58/14/1
f 12/10/1 13/15/1 20/16/1
f 17/11/1 20/16/1 21/17/1
f 18/12/1 21/17/1 22/18/1
f 19/13/1 22/18/1 57/19/1
f 13/15/1 53/20/1 54/21/1
f 20/16/1 54/21/1 55/22/1
f 21/17/1 55/22/1 56/23/1
f 22/18/1 56/23/1 78/24/1
f 1/1/1 2/4/1 23/25/1
f 5/26/1 23/25/1 24/27/1
f 6/28/1 24/27/1 25/29/1
f 7/30/1 25/29/1 66/31/1
f 2/4/1 3/6/1 26/32/1
f 23/25/1 26/32/1 27/33/1
f 24/27/1 27/33/1 28/34/1
f 25/29/1 28/34/1 65/35/1
f 3/6/1 4/8/1 29/36/1
f 26/32/1 29/36/1 30/37/1
f 27/33/1 30/37/1 31/38/1
f 28/34/1 31/38/1 64/39/1
f 4/8/1 60/40/1 61/41/1
f 29/36/1 61/41/1 62/42/1
f 30/37/1 62/42/1 63/43/1
f 31/38/1 63/43/1 79/44/1
f 1/1/1 5/26/1 32/45/1
f 8/46/1 32/45/1 33/47/1
f 9/48/1 33/47/1 34/49/1
f 10/50/1 34/49/1 73/51/1
f 5/26/1 6/28/1 35/52/1
f 32/45/1 35/52/1 36/53/1
f 33/47/1 36/53/1 37/54/1
f 34/49/1 37/54/1 72/55/1
f 6/28/1 7/30/1 38/56/1
f 35/52/1 38/56/1 39/57/1
f 36/53/1 39/57/1 40/58/1
f 37/54/1 40/58/1 71/59/1
f 7/30/1 67/60/1 68/61/1
f 38/56/1 68/61/1 69/62/1
f 39/57/1 69/62/1 70/63/1
f 40/58/1 70/63/1 81/64/1
f 1/1/1 8/46/1 41/65/1
f 11/2/1 41/65/1 42/66/1
f 12/10/1 42/66/1 43/67/1
f 13/15/1 43/67/1 52/68/1
f 8/46/1 9/48/1 44/69/1
f 41/65/1 44/69/1 45/70/1
f 42/66/1 45/70/1 46/71/1
f 43/67/1 46/71/1 51/72/1
f 9/48/1 10/50/1 47/73/1
f 44/69/1 47/73/1 48/74/1
f 45/70/1 48/74/1 49/75/1
f 46/71/1 49/75/1 50/76/1
f 10/50/1 74/77/1 75/78/1
f 47/73/1 75/78/1 76/79/1
f 48/74/1 76/79/1 77/80/1
f 49/75/1 77/80/1 80/81/1
f 2/4/1 1/1/1 14/3/1
f 3/6/1 2/4/1 15/5/1
f 4/8/1 3/6/1 16/7/1
f 60/40/1 4/8/1 59/9/1
f 14/3/1 11/2/1 17/11/1
f 15/5/1 14/3/1 18/12/1
f 16/7/1 15/5/1 19/13/1
f 59/9/1 16/7/1 58/14/1
f 17/11/1 12/10/1 20/16/1
f 18/12/1 17/11/1 21/17/1
f 19/13/1 18/12/1 22/18/1
f 58/14/1 19/13/1 57/19/1
f 20/16/1 13/15/1 54/21/1
f 21/17/1 20/16/1 55/22/1
f 22/18/1 21/17/1 56/23/1
f 57/19/1 22/18/1 78/24/1
f 5/26/1 1/1/1 23/25/1
f 6/28/1 5/26/1 24/27/1
f 7/30/1 6/28/1 25/29/1
f 67/60/1 7/30/1 66/31/1
f 23/25/1 2/4/1 26/32/1
f 24/27/1 23/25/1 27/33/1
f 25/29/1 24/27/1 28/34/1
f 66/31/1 25/29/1 65/35/1
f 26/32/1 3/6/1 29/36/1
f 27/33/1 26/32/1 30/37/1
f 28/34/1 27/33/1 31/38/1
f 65/35/1 28/34/1 64/39/1
f 29/36/1 4/8/1 61/41/1
f 30/37/1 29/36/1 62/42/1
f 31/38/1 30/37/1 63/43/1
f 64/39/1 31/38/1 79/44/1
f 8/46/1 1/1/1 32/45/1
f 9/48/1 8/46/1 33/47/1
f 10/50/1 9/48/1 34/49/1
f 74/77/1 10/50/1 73/51/1
f 32/45/1 5/26/1 35/52/1
f 33/47/1 32/45/1 36/53/1
f 34/49/1 33/47/1 37/54/1
f 73/51/1 34/49/1 72/55/1
f 35/52/1 6/28/1 38/56/1
f 36/53/1 35/52/1 39/57/1
f 37/54/1 36/53/1 40/58/1
f 72/55/1 37/54/1 71/59/1
f 38/56/1 7/30/1 68/61/1
f 39/57/1 38/56/1 69/62/1
f 40/58/1 39/57/1 70/63/1
f 71/59/1 40/58/1 81/64/1
f 11/2/1 1/1/1 41/65/1
f 12/10/1 11/2/1 42/66/1
f 13/15/1 12/10/1 43/67/1
f 53/20/1 13/15/1 52/68/1
f 41/65/1 8/46/1 44/69/1
f 42/66/1 41/65/1 45/70/1
f 43/67/1 42/66/1 46/71/1
f 52/68/1 43/67/1 51/72/1
f 44/69/1 9/48/1 47/73/1
f 45/70/1 44/69/1 48/74/1
f 46/71/1 45/70/1 49/75/1
f 51/72/1 46/71/1 50/76/1
f 47/73/1 10/50/1 75/78/1
f 48/74/1 47/73/1 76/79/1
f 49/75/1 48/74/1 77/80/1
f 50/76/1 49/75/1 80/81/1
